<svg width="110" height="37" viewBox="0 0 110 37" fill="none" xmlns="http://www.w3.org/2000/svg">
<path d="M0.585938 36.0596V30.5664L12.0361 18.5059C13.0615 17.334 13.8753 16.3005 14.4775 15.4053C15.0798 14.5101 15.5111 13.6882 15.7715 12.9395C16.0482 12.1908 16.1865 11.4665 16.1865 10.7666C16.1865 9.611 15.8773 8.63444 15.2588 7.83691C14.6403 7.02311 13.7126 6.61621 12.4756 6.61621C11.1247 6.61621 10.1237 7.09635 9.47266 8.05664C8.82161 9.00065 8.49609 10.2783 8.49609 11.8896H0.12207L0.0732422 11.7432C0.0244141 9.5459 0.496419 7.56022 1.48926 5.78613C2.49837 4.01204 3.94694 2.60417 5.83496 1.5625C7.72298 0.520833 9.94466 0 12.5 0C15.0553 0 17.2445 0.447591 19.0674 1.34277C20.9066 2.22168 22.3145 3.4668 23.291 5.07812C24.2839 6.67318 24.7803 8.54492 24.7803 10.6934C24.7803 12.1582 24.528 13.5091 24.0234 14.7461C23.5352 15.9668 22.7214 17.277 21.582 18.6768C20.459 20.0765 18.9535 21.7692 17.0654 23.7549L11.6943 29.4434L11.7432 29.5654H18.7988L19.165 26.6113H25.5859V36.0596H0.585938ZM41.3574 36.5723C37.5 36.5723 34.4482 35.3516 32.2021 32.9102C29.9561 30.4688 28.833 26.8473 28.833 22.0459V14.5508C28.833 9.76562 29.9561 6.14421 32.2021 3.68652C34.4482 1.22884 37.4837 0 41.3086 0C45.1009 0 48.1201 1.22884 50.3662 3.68652C52.6286 6.14421 53.7598 9.76562 53.7598 14.5508V22.0459C53.7598 26.8473 52.6367 30.4688 50.3906 32.9102C48.1608 35.3516 45.1497 36.5723 41.3574 36.5723ZM41.3574 30.0537C42.6107 30.0537 43.571 29.484 44.2383 28.3447C44.9056 27.1891 45.2393 25.2523 45.2393 22.5342V14.0137C45.2393 11.3444 44.8975 9.43197 44.2139 8.27637C43.5303 7.12077 42.5618 6.54297 41.3086 6.54297C40.0065 6.54297 39.0218 7.12077 38.3545 8.27637C37.6872 9.41569 37.3535 11.3281 37.3535 14.0137V22.5342C37.3535 25.2686 37.6872 27.2054 38.3545 28.3447C39.0218 29.484 40.0228 30.0537 41.3574 30.0537ZM57.0312 36.0596V30.5664L68.4814 18.5059C69.5068 17.334 70.3206 16.3005 70.9229 15.4053C71.5251 14.5101 71.9564 13.6882 72.2168 12.9395C72.4935 12.1908 72.6318 11.4665 72.6318 10.7666C72.6318 9.611 72.3226 8.63444 71.7041 7.83691C71.0856 7.02311 70.1579 6.61621 68.9209 6.61621C67.57 6.61621 66.569 7.09635 65.918 8.05664C65.2669 9.00065 64.9414 10.2783 64.9414 11.8896H56.5674L56.5186 11.7432C56.4697 9.5459 56.9417 7.56022 57.9346 5.78613C58.9437 4.01204 60.3923 2.60417 62.2803 1.5625C64.1683 0.520833 66.39 0 68.9453 0C71.5007 0 73.6898 0.447591 75.5127 1.34277C77.3519 2.22168 78.7598 3.4668 79.7363 5.07812C80.7292 6.67318 81.2256 8.54492 81.2256 10.6934C81.2256 12.1582 80.9733 13.5091 80.4688 14.7461C79.9805 15.9668 79.1667 17.277 78.0273 18.6768C76.9043 20.0765 75.3988 21.7692 73.5107 23.7549L68.1396 29.4434L68.1885 29.5654H75.2441L75.6104 26.6113H82.0312V36.0596H57.0312ZM84.8633 36.0596V30.5664L96.3135 18.5059C97.3389 17.334 98.1527 16.3005 98.7549 15.4053C99.3571 14.5101 99.7884 13.6882 100.049 12.9395C100.326 12.1908 100.464 11.4665 100.464 10.7666C100.464 9.611 100.155 8.63444 99.5361 7.83691C98.9176 7.02311 97.9899 6.61621 96.7529 6.61621C95.402 6.61621 94.401 7.09635 93.75 8.05664C93.099 9.00065 92.7734 10.2783 92.7734 11.8896H84.3994L84.3506 11.7432C84.3018 9.5459 84.7738 7.56022 85.7666 5.78613C86.7757 4.01204 88.2243 2.60417 90.1123 1.5625C92.0003 0.520833 94.222 0 96.7773 0C99.3327 0 101.522 0.447591 103.345 1.34277C105.184 2.22168 106.592 3.4668 107.568 5.07812C108.561 6.67318 109.058 8.54492 109.058 10.6934C109.058 12.1582 108.805 13.5091 108.301 14.7461C107.812 15.9668 106.999 17.277 105.859 18.6768C104.736 20.0765 103.231 21.7692 101.343 23.7549L95.9717 29.4434L96.0205 29.5654H103.076L103.442 26.6113H109.863V36.0596H84.8633Z" fill="black"/>
</svg>
