<svg width="365" height="349" viewBox="0 0 365 349" fill="none" xmlns="http://www.w3.org/2000/svg">
<path d="M178.493 184.401C100.917 397.432 -5.048 320.442 173.583 180.833C-9.65734 317.094 -13.088 312.373 173.128 180.209C-14.848 306.956 -55.324 182.385 171.252 174.436C-57.084 176.966 -57.084 171.13 171.252 173.662C-55.324 165.713 -14.848 41.1424 173.128 167.889C-13.088 35.7251 -9.65734 31.0037 173.583 167.264C-5.048 27.6544 100.917 -49.3336 178.493 163.696C105.527 -52.6829 111.076 -54.4856 179.228 163.457C116.773 -54.4856 247.755 -54.4856 185.299 163.457C253.451 -54.4856 259.001 -52.6829 186.033 163.696C263.609 -49.3336 369.576 27.6544 190.945 167.264C374.184 31.0037 377.615 35.7251 191.399 167.889C379.375 41.1424 419.851 165.713 193.275 173.662C421.611 171.13 421.611 176.966 193.275 174.436C419.851 182.385 379.375 306.956 191.399 180.209C377.615 312.373 374.184 317.094 190.945 180.833C369.576 320.442 263.609 397.432 186.033 184.401C259.001 400.78 253.451 402.584 185.299 184.641C247.755 402.584 116.773 402.584 179.228 184.641C111.076 402.584 105.527 400.78 178.493 184.401Z" fill="#FED053"/>
</svg>
