<svg width="365" height="383" viewBox="0 0 365 383" fill="none" xmlns="http://www.w3.org/2000/svg">
<path d="M178.48 202.671C100.76 441.897 -31.1202 346.08 172.373 198.231C-31.1202 346.08 -81.5002 191.046 170.04 191.046C-81.5002 191.046 -31.1202 36.0112 172.373 183.86C-31.1202 36.0112 100.76 -59.8061 178.48 179.419C100.76 -59.8061 263.773 -59.8061 186.04 179.419C263.773 -59.8061 395.653 36.0112 192.147 183.86C395.653 36.0112 446.027 191.046 194.48 191.046C446.027 191.046 395.653 346.08 192.147 198.231C395.653 346.08 263.773 441.897 186.04 202.671C263.773 441.897 100.76 441.897 178.48 202.671Z" fill="#393536"/>
</svg>
